<?xml version="1.0" standalone="no"?>
<!DOCTYPE svg PUBLIC "-//W3C//DTD SVG 20010904//EN"
 "http://www.w3.org/TR/2001/REC-SVG-20010904/DTD/svg10.dtd">
<svg version="1.0" xmlns="http://www.w3.org/2000/svg"
 width="150.000000pt" height="150.000000pt" viewBox="0 0 150.000000 150.000000"
 preserveAspectRatio="xMidYMid meet">
<metadata>
Created by potrace 1.16, written by Peter Selinger 2001-2019
</metadata>
<g transform="translate(0.000000,150.000000) scale(0.100000,-0.100000)"
fill="#000000" stroke="none">
<path d="M0 750 l0 -750 750 0 750 0 0 750 0 750 -750 0 -750 0 0 -750z m586
123 l183 -392 -56 -121 c-31 -66 -60 -117 -64 -113 -6 7 -326 690 -445 951
l-34 73 117 -3 116 -3 183 -392z m333 275 c32 -68 115 -245 185 -395 l126
-272 -54 -116 c-29 -64 -57 -116 -61 -116 -8 0 -475 994 -475 1011 0 6 47 10
111 10 l110 0 58 -122z m397 105 c-19 -50 -102 -223 -107 -223 -6 0 -109 220
-109 233 0 4 50 7 111 7 102 0 111 -1 105 -17z m-896 -1015 c0 -5 -49 -8 -110
-8 -73 0 -110 4 -110 11 0 6 24 62 53 124 l52 114 57 -117 c32 -64 58 -120 58
-124z"/>
</g>
</svg>
